<svg class="main-svg" xmlns="http://www.w3.org/2000/svg" xmlns:xlink="http://www.w3.org/1999/xlink" width="550" height="550" viewBox="0 0 550 550"><rect x="0" y="0" width="550" height="550" style="fill: rgb(255, 255, 255); fill-opacity: 1;"/><defs id="defs-54a663"><g class="clips"><clipPath id="clip54a663xyplot" class="plotclip"><rect width="390" height="370"/></clipPath><clipPath class="axesclip" id="clip54a663x"><rect x="80" y="0" width="390" height="550"/></clipPath><clipPath class="axesclip" id="clip54a663y"><rect x="0" y="100" width="550" height="370"/></clipPath><clipPath class="axesclip" id="clip54a663xy"><rect x="80" y="100" width="390" height="370"/></clipPath></g><g class="gradients"/></defs><g class="bglayer"><rect class="bg" x="80" y="100" width="390" height="370" style="fill: rgb(229, 236, 246); fill-opacity: 1; stroke-width: 0;"/></g><g class="layer-below"><g class="imagelayer"/><g class="shapelayer"/></g><g class="cartesianlayer"><g class="subplot xy"><g class="layer-subplot"><g class="shapelayer"/><g class="imagelayer"/></g><g class="gridlayer"><g class="x"><path class="xgrid crisp" transform="translate(177.5,0)" d="M0,100v370" style="stroke: rgb(255, 255, 255); stroke-opacity: 1; stroke-width: 1px;"/><path class="xgrid crisp" transform="translate(275,0)" d="M0,100v370" style="stroke: rgb(255, 255, 255); stroke-opacity: 1; stroke-width: 1px;"/><path class="xgrid crisp" transform="translate(372.5,0)" d="M0,100v370" style="stroke: rgb(255, 255, 255); stroke-opacity: 1; stroke-width: 1px;"/></g><g class="y"><path class="ygrid crisp" transform="translate(0,377.5)" d="M80,0h390" style="stroke: rgb(255, 255, 255); stroke-opacity: 1; stroke-width: 1px;"/><path class="ygrid crisp" transform="translate(0,285)" d="M80,0h390" style="stroke: rgb(255, 255, 255); stroke-opacity: 1; stroke-width: 1px;"/><path class="ygrid crisp" transform="translate(0,192.5)" d="M80,0h390" style="stroke: rgb(255, 255, 255); stroke-opacity: 1; stroke-width: 1px;"/></g></g><g class="zerolinelayer"/><path class="xlines-below"/><path class="ylines-below"/><g class="overlines-below"/><g class="xaxislayer-below"/><g class="yaxislayer-below"/><g class="overaxes-below"/><g class="plot" transform="translate(80, 100)" clip-path="url('#clip54a663xyplot')"><g class="scatterlayer mlayer"><g class="trace scatter tracefc9860" style="stroke-miterlimit: 2; opacity: 1;"><g class="fills"/><g class="errorbars"/><g class="lines"/><g class="points"><path class="point" transform="translate(325.76,107.14)" d="M5,0A5,5 0 1,1 0,-5A5,5 0 0,1 5,0Z" style="opacity: 1; stroke: rgb(133, 192, 249); stroke-opacity: 1; stroke-width: 2px; fill: none;"/><path class="point" transform="translate(292.09,94.65)" d="M5,0A5,5 0 1,1 0,-5A5,5 0 0,1 5,0Z" style="opacity: 1; stroke: rgb(133, 192, 249); stroke-opacity: 1; stroke-width: 2px; fill: none;"/><path class="point" transform="translate(315.82,103.02)" d="M5,0A5,5 0 1,1 0,-5A5,5 0 0,1 5,0Z" style="opacity: 1; stroke: rgb(133, 192, 249); stroke-opacity: 1; stroke-width: 2px; fill: none;"/><path class="point" transform="translate(271.86,68.18)" d="M5,0A5,5 0 1,1 0,-5A5,5 0 0,1 5,0Z" style="opacity: 1; stroke: rgb(133, 192, 249); stroke-opacity: 1; stroke-width: 2px; fill: none;"/><path class="point" transform="translate(294.75,88.65)" d="M5,0A5,5 0 1,1 0,-5A5,5 0 0,1 5,0Z" style="opacity: 1; stroke: rgb(133, 192, 249); stroke-opacity: 1; stroke-width: 2px; fill: none;"/><path class="point" transform="translate(292.4,81.34)" d="M5,0A5,5 0 1,1 0,-5A5,5 0 0,1 5,0Z" style="opacity: 1; stroke: rgb(133, 192, 249); stroke-opacity: 1; stroke-width: 2px; fill: none;"/><path class="point" transform="translate(309.68,54.78)" d="M5,0A5,5 0 1,1 0,-5A5,5 0 0,1 5,0Z" style="opacity: 1; stroke: rgb(133, 192, 249); stroke-opacity: 1; stroke-width: 2px; fill: none;"/><path class="point" transform="translate(306.05,93.9)" d="M5,0A5,5 0 1,1 0,-5A5,5 0 0,1 5,0Z" style="opacity: 1; stroke: rgb(133, 192, 249); stroke-opacity: 1; stroke-width: 2px; fill: none;"/><path class="point" transform="translate(275.12,99.02)" d="M5,0A5,5 0 1,1 0,-5A5,5 0 0,1 5,0Z" style="opacity: 1; stroke: rgb(133, 192, 249); stroke-opacity: 1; stroke-width: 2px; fill: none;"/><path class="point" transform="translate(285.69,98.56)" d="M5,0A5,5 0 1,1 0,-5A5,5 0 0,1 5,0Z" style="opacity: 1; stroke: rgb(133, 192, 249); stroke-opacity: 1; stroke-width: 2px; fill: none;"/><path class="point" transform="translate(305.42,76.32)" d="M5,0A5,5 0 1,1 0,-5A5,5 0 0,1 5,0Z" style="opacity: 1; stroke: rgb(133, 192, 249); stroke-opacity: 1; stroke-width: 2px; fill: none;"/><path class="point" transform="translate(277.93,93.08)" d="M5,0A5,5 0 1,1 0,-5A5,5 0 0,1 5,0Z" style="opacity: 1; stroke: rgb(133, 192, 249); stroke-opacity: 1; stroke-width: 2px; fill: none;"/><path class="point" transform="translate(312.94,74.96)" d="M5,0A5,5 0 1,1 0,-5A5,5 0 0,1 5,0Z" style="opacity: 1; stroke: rgb(133, 192, 249); stroke-opacity: 1; stroke-width: 2px; fill: none;"/><path class="point" transform="translate(298.36,95.78)" d="M5,0A5,5 0 1,1 0,-5A5,5 0 0,1 5,0Z" style="opacity: 1; stroke: rgb(133, 192, 249); stroke-opacity: 1; stroke-width: 2px; fill: none;"/><path class="point" transform="translate(274.87,87.89)" d="M5,0A5,5 0 1,1 0,-5A5,5 0 0,1 5,0Z" style="opacity: 1; stroke: rgb(133, 192, 249); stroke-opacity: 1; stroke-width: 2px; fill: none;"/><path class="point" transform="translate(262.26,77.34)" d="M5,0A5,5 0 1,1 0,-5A5,5 0 0,1 5,0Z" style="opacity: 1; stroke: rgb(133, 192, 249); stroke-opacity: 1; stroke-width: 2px; fill: none;"/><path class="point" transform="translate(317.72,97.72)" d="M5,0A5,5 0 1,1 0,-5A5,5 0 0,1 5,0Z" style="opacity: 1; stroke: rgb(133, 192, 249); stroke-opacity: 1; stroke-width: 2px; fill: none;"/><path class="point" transform="translate(333.7,90.64)" d="M5,0A5,5 0 1,1 0,-5A5,5 0 0,1 5,0Z" style="opacity: 1; stroke: rgb(133, 192, 249); stroke-opacity: 1; stroke-width: 2px; fill: none;"/><path class="point" transform="translate(310.57,90.87)" d="M5,0A5,5 0 1,1 0,-5A5,5 0 0,1 5,0Z" style="opacity: 1; stroke: rgb(133, 192, 249); stroke-opacity: 1; stroke-width: 2px; fill: none;"/><path class="point" transform="translate(260.73,107.48)" d="M5,0A5,5 0 1,1 0,-5A5,5 0 0,1 5,0Z" style="opacity: 1; stroke: rgb(133, 192, 249); stroke-opacity: 1; stroke-width: 2px; fill: none;"/><path class="point" transform="translate(323.62,52.76)" d="M5,0A5,5 0 1,1 0,-5A5,5 0 0,1 5,0Z" style="opacity: 1; stroke: rgb(133, 192, 249); stroke-opacity: 1; stroke-width: 2px; fill: none;"/><path class="point" transform="translate(250.62,83.76)" d="M5,0A5,5 0 1,1 0,-5A5,5 0 0,1 5,0Z" style="opacity: 1; stroke: rgb(133, 192, 249); stroke-opacity: 1; stroke-width: 2px; fill: none;"/><path class="point" transform="translate(300.34,72.03)" d="M5,0A5,5 0 1,1 0,-5A5,5 0 0,1 5,0Z" style="opacity: 1; stroke: rgb(133, 192, 249); stroke-opacity: 1; stroke-width: 2px; fill: none;"/><path class="point" transform="translate(272.16,96.39)" d="M5,0A5,5 0 1,1 0,-5A5,5 0 0,1 5,0Z" style="opacity: 1; stroke: rgb(133, 192, 249); stroke-opacity: 1; stroke-width: 2px; fill: none;"/><path class="point" transform="translate(295.99,57.59)" d="M5,0A5,5 0 1,1 0,-5A5,5 0 0,1 5,0Z" style="opacity: 1; stroke: rgb(133, 192, 249); stroke-opacity: 1; stroke-width: 2px; fill: none;"/><path class="point" transform="translate(273.02,98.86)" d="M5,0A5,5 0 1,1 0,-5A5,5 0 0,1 5,0Z" style="opacity: 1; stroke: rgb(133, 192, 249); stroke-opacity: 1; stroke-width: 2px; fill: none;"/><path class="point" transform="translate(300.24,76.16)" d="M5,0A5,5 0 1,1 0,-5A5,5 0 0,1 5,0Z" style="opacity: 1; stroke: rgb(133, 192, 249); stroke-opacity: 1; stroke-width: 2px; fill: none;"/><path class="point" transform="translate(319.05,83.18)" d="M5,0A5,5 0 1,1 0,-5A5,5 0 0,1 5,0Z" style="opacity: 1; stroke: rgb(133, 192, 249); stroke-opacity: 1; stroke-width: 2px; fill: none;"/><path class="point" transform="translate(303.25,60.6)" d="M5,0A5,5 0 1,1 0,-5A5,5 0 0,1 5,0Z" style="opacity: 1; stroke: rgb(133, 192, 249); stroke-opacity: 1; stroke-width: 2px; fill: none;"/><path class="point" transform="translate(324.5,103.75)" d="M5,0A5,5 0 1,1 0,-5A5,5 0 0,1 5,0Z" style="opacity: 1; stroke: rgb(133, 192, 249); stroke-opacity: 1; stroke-width: 2px; fill: none;"/><path class="point" transform="translate(295.75,117.19)" d="M5,0A5,5 0 1,1 0,-5A5,5 0 0,1 5,0Z" style="opacity: 1; stroke: rgb(133, 192, 249); stroke-opacity: 1; stroke-width: 2px; fill: none;"/><path class="point" transform="translate(304.14,128.78)" d="M5,0A5,5 0 1,1 0,-5A5,5 0 0,1 5,0Z" style="opacity: 1; stroke: rgb(133, 192, 249); stroke-opacity: 1; stroke-width: 2px; fill: none;"/><path class="point" transform="translate(270.69,80.82)" d="M5,0A5,5 0 1,1 0,-5A5,5 0 0,1 5,0Z" style="opacity: 1; stroke: rgb(133, 192, 249); stroke-opacity: 1; stroke-width: 2px; fill: none;"/><path class="point" transform="translate(258.52,100.93)" d="M5,0A5,5 0 1,1 0,-5A5,5 0 0,1 5,0Z" style="opacity: 1; stroke: rgb(133, 192, 249); stroke-opacity: 1; stroke-width: 2px; fill: none;"/><path class="point" transform="translate(274.98,86.75)" d="M5,0A5,5 0 1,1 0,-5A5,5 0 0,1 5,0Z" style="opacity: 1; stroke: rgb(133, 192, 249); stroke-opacity: 1; stroke-width: 2px; fill: none;"/></g><g class="text"/></g><g class="trace scatter trace4dffba" style="stroke-miterlimit: 2; opacity: 1;"><g class="fills"/><g class="errorbars"/><g class="lines"/><g class="points"><path class="point" transform="translate(308.67,138.63)" d="M5,0A5,5 0 1,1 0,-5A5,5 0 0,1 5,0Z" style="opacity: 1; stroke-width: 2px; fill: rgb(133, 192, 249); fill-opacity: 1; stroke: rgb(68, 68, 68); stroke-opacity: 1;"/><path class="point" transform="translate(290.75,46.27)" d="M5,0A5,5 0 1,1 0,-5A5,5 0 0,1 5,0Z" style="opacity: 1; stroke-width: 2px; fill: rgb(133, 192, 249); fill-opacity: 1; stroke: rgb(68, 68, 68); stroke-opacity: 1;"/><path class="point" transform="translate(323.65,123.67)" d="M5,0A5,5 0 1,1 0,-5A5,5 0 0,1 5,0Z" style="opacity: 1; stroke-width: 2px; fill: rgb(133, 192, 249); fill-opacity: 1; stroke: rgb(68, 68, 68); stroke-opacity: 1;"/><path class="point" transform="translate(339.56,49.06)" d="M5,0A5,5 0 1,1 0,-5A5,5 0 0,1 5,0Z" style="opacity: 1; stroke-width: 2px; fill: rgb(133, 192, 249); fill-opacity: 1; stroke: rgb(68, 68, 68); stroke-opacity: 1;"/><path class="point" transform="translate(243.44,84.96)" d="M5,0A5,5 0 1,1 0,-5A5,5 0 0,1 5,0Z" style="opacity: 1; stroke-width: 2px; fill: rgb(133, 192, 249); fill-opacity: 1; stroke: rgb(68, 68, 68); stroke-opacity: 1;"/></g><g class="text"/></g><g class="trace scatter trace976ad1" style="stroke-miterlimit: 2; opacity: 1;"><g class="fills"/><g class="errorbars"/><g class="lines"/><g class="points"><path class="point" transform="translate(114.12,252.21)" d="M5,0A5,5 0 1,1 0,-5A5,5 0 0,1 5,0Z" style="opacity: 1; stroke: rgb(245, 121, 58); stroke-opacity: 1; stroke-width: 2px; fill: none;"/><path class="point" transform="translate(197.54,145.02)" d="M5,0A5,5 0 1,1 0,-5A5,5 0 0,1 5,0Z" style="opacity: 1; stroke: rgb(245, 121, 58); stroke-opacity: 1; stroke-width: 2px; fill: none;"/><path class="point" transform="translate(115.73,219.04)" d="M5,0A5,5 0 1,1 0,-5A5,5 0 0,1 5,0Z" style="opacity: 1; stroke: rgb(245, 121, 58); stroke-opacity: 1; stroke-width: 2px; fill: none;"/><path class="point" transform="translate(151.77,190.98)" d="M5,0A5,5 0 1,1 0,-5A5,5 0 0,1 5,0Z" style="opacity: 1; stroke: rgb(245, 121, 58); stroke-opacity: 1; stroke-width: 2px; fill: none;"/><path class="point" transform="translate(123.28,249.06)" d="M5,0A5,5 0 1,1 0,-5A5,5 0 0,1 5,0Z" style="opacity: 1; stroke: rgb(245, 121, 58); stroke-opacity: 1; stroke-width: 2px; fill: none;"/><path class="point" transform="translate(107.78,234.3)" d="M5,0A5,5 0 1,1 0,-5A5,5 0 0,1 5,0Z" style="opacity: 1; stroke: rgb(245, 121, 58); stroke-opacity: 1; stroke-width: 2px; fill: none;"/><path class="point" transform="translate(166.74,252.15)" d="M5,0A5,5 0 1,1 0,-5A5,5 0 0,1 5,0Z" style="opacity: 1; stroke: rgb(245, 121, 58); stroke-opacity: 1; stroke-width: 2px; fill: none;"/><path class="point" transform="translate(196.96,259.05)" d="M5,0A5,5 0 1,1 0,-5A5,5 0 0,1 5,0Z" style="opacity: 1; stroke: rgb(245, 121, 58); stroke-opacity: 1; stroke-width: 2px; fill: none;"/><path class="point" transform="translate(167.05,263.62)" d="M5,0A5,5 0 1,1 0,-5A5,5 0 0,1 5,0Z" style="opacity: 1; stroke: rgb(245, 121, 58); stroke-opacity: 1; stroke-width: 2px; fill: none;"/><path class="point" transform="translate(145.96,243.95)" d="M5,0A5,5 0 1,1 0,-5A5,5 0 0,1 5,0Z" style="opacity: 1; stroke: rgb(245, 121, 58); stroke-opacity: 1; stroke-width: 2px; fill: none;"/><path class="point" transform="translate(170.64,335.22)" d="M5,0A5,5 0 1,1 0,-5A5,5 0 0,1 5,0Z" style="opacity: 1; stroke: rgb(245, 121, 58); stroke-opacity: 1; stroke-width: 2px; fill: none;"/><path class="point" transform="translate(195.79,169.61)" d="M5,0A5,5 0 1,1 0,-5A5,5 0 0,1 5,0Z" style="opacity: 1; stroke: rgb(245, 121, 58); stroke-opacity: 1; stroke-width: 2px; fill: none;"/><path class="point" transform="translate(110.44,225.35)" d="M5,0A5,5 0 1,1 0,-5A5,5 0 0,1 5,0Z" style="opacity: 1; stroke: rgb(245, 121, 58); stroke-opacity: 1; stroke-width: 2px; fill: none;"/><path class="point" transform="translate(89.78,244.69)" d="M5,0A5,5 0 1,1 0,-5A5,5 0 0,1 5,0Z" style="opacity: 1; stroke: rgb(245, 121, 58); stroke-opacity: 1; stroke-width: 2px; fill: none;"/><path class="point" transform="translate(138.6,152.5)" d="M5,0A5,5 0 1,1 0,-5A5,5 0 0,1 5,0Z" style="opacity: 1; stroke: rgb(245, 121, 58); stroke-opacity: 1; stroke-width: 2px; fill: none;"/><path class="point" transform="translate(167.84,199.23)" d="M5,0A5,5 0 1,1 0,-5A5,5 0 0,1 5,0Z" style="opacity: 1; stroke: rgb(245, 121, 58); stroke-opacity: 1; stroke-width: 2px; fill: none;"/><path class="point" transform="translate(182.93,334.04)" d="M5,0A5,5 0 1,1 0,-5A5,5 0 0,1 5,0Z" style="opacity: 1; stroke: rgb(245, 121, 58); stroke-opacity: 1; stroke-width: 2px; fill: none;"/><path class="point" transform="translate(179.58,223.45)" d="M5,0A5,5 0 1,1 0,-5A5,5 0 0,1 5,0Z" style="opacity: 1; stroke: rgb(245, 121, 58); stroke-opacity: 1; stroke-width: 2px; fill: none;"/><path class="point" transform="translate(141.55,246.51)" d="M5,0A5,5 0 1,1 0,-5A5,5 0 0,1 5,0Z" style="opacity: 1; stroke: rgb(245, 121, 58); stroke-opacity: 1; stroke-width: 2px; fill: none;"/><path class="point" transform="translate(182.76,252.2)" d="M5,0A5,5 0 1,1 0,-5A5,5 0 0,1 5,0Z" style="opacity: 1; stroke: rgb(245, 121, 58); stroke-opacity: 1; stroke-width: 2px; fill: none;"/><path class="point" transform="translate(181.6,170.78)" d="M5,0A5,5 0 1,1 0,-5A5,5 0 0,1 5,0Z" style="opacity: 1; stroke: rgb(245, 121, 58); stroke-opacity: 1; stroke-width: 2px; fill: none;"/><path class="point" transform="translate(133.02,287.39)" d="M5,0A5,5 0 1,1 0,-5A5,5 0 0,1 5,0Z" style="opacity: 1; stroke: rgb(245, 121, 58); stroke-opacity: 1; stroke-width: 2px; fill: none;"/><path class="point" transform="translate(117.54,276.06)" d="M5,0A5,5 0 1,1 0,-5A5,5 0 0,1 5,0Z" style="opacity: 1; stroke: rgb(245, 121, 58); stroke-opacity: 1; stroke-width: 2px; fill: none;"/><path class="point" transform="translate(135.66,236.59)" d="M5,0A5,5 0 1,1 0,-5A5,5 0 0,1 5,0Z" style="opacity: 1; stroke: rgb(245, 121, 58); stroke-opacity: 1; stroke-width: 2px; fill: none;"/><path class="point" transform="translate(205.23,195.75)" d="M5,0A5,5 0 1,1 0,-5A5,5 0 0,1 5,0Z" style="opacity: 1; stroke: rgb(245, 121, 58); stroke-opacity: 1; stroke-width: 2px; fill: none;"/><path class="point" transform="translate(93.75,168.9)" d="M5,0A5,5 0 1,1 0,-5A5,5 0 0,1 5,0Z" style="opacity: 1; stroke: rgb(245, 121, 58); stroke-opacity: 1; stroke-width: 2px; fill: none;"/><path class="point" transform="translate(220.64,205.59)" d="M5,0A5,5 0 1,1 0,-5A5,5 0 0,1 5,0Z" style="opacity: 1; stroke: rgb(245, 121, 58); stroke-opacity: 1; stroke-width: 2px; fill: none;"/><path class="point" transform="translate(86.13,272.48)" d="M5,0A5,5 0 1,1 0,-5A5,5 0 0,1 5,0Z" style="opacity: 1; stroke: rgb(245, 121, 58); stroke-opacity: 1; stroke-width: 2px; fill: none;"/><path class="point" transform="translate(142.6,262.86)" d="M5,0A5,5 0 1,1 0,-5A5,5 0 0,1 5,0Z" style="opacity: 1; stroke: rgb(245, 121, 58); stroke-opacity: 1; stroke-width: 2px; fill: none;"/><path class="point" transform="translate(209.28,254.07)" d="M5,0A5,5 0 1,1 0,-5A5,5 0 0,1 5,0Z" style="opacity: 1; stroke: rgb(245, 121, 58); stroke-opacity: 1; stroke-width: 2px; fill: none;"/><path class="point" transform="translate(154.21,329.13)" d="M5,0A5,5 0 1,1 0,-5A5,5 0 0,1 5,0Z" style="opacity: 1; stroke: rgb(245, 121, 58); stroke-opacity: 1; stroke-width: 2px; fill: none;"/><path class="point" transform="translate(130.48,173.04)" d="M5,0A5,5 0 1,1 0,-5A5,5 0 0,1 5,0Z" style="opacity: 1; stroke: rgb(245, 121, 58); stroke-opacity: 1; stroke-width: 2px; fill: none;"/><path class="point" transform="translate(139.7,235.78)" d="M5,0A5,5 0 1,1 0,-5A5,5 0 0,1 5,0Z" style="opacity: 1; stroke: rgb(245, 121, 58); stroke-opacity: 1; stroke-width: 2px; fill: none;"/><path class="point" transform="translate(197.18,270.74)" d="M5,0A5,5 0 1,1 0,-5A5,5 0 0,1 5,0Z" style="opacity: 1; stroke: rgb(245, 121, 58); stroke-opacity: 1; stroke-width: 2px; fill: none;"/><path class="point" transform="translate(117.34,285.95)" d="M5,0A5,5 0 1,1 0,-5A5,5 0 0,1 5,0Z" style="opacity: 1; stroke: rgb(245, 121, 58); stroke-opacity: 1; stroke-width: 2px; fill: none;"/></g><g class="text"/></g><g class="trace scatter trace0ae423" style="stroke-miterlimit: 2; opacity: 1;"><g class="fills"/><g class="errorbars"/><g class="lines"/><g class="points"><path class="point" transform="translate(245.95,276.38)" d="M5,0A5,5 0 1,1 0,-5A5,5 0 0,1 5,0Z" style="opacity: 1; stroke-width: 2px; fill: rgb(245, 121, 58); fill-opacity: 1; stroke: rgb(68, 68, 68); stroke-opacity: 1;"/><path class="point" transform="translate(81.75,144.32)" d="M5,0A5,5 0 1,1 0,-5A5,5 0 0,1 5,0Z" style="opacity: 1; stroke-width: 2px; fill: rgb(245, 121, 58); fill-opacity: 1; stroke: rgb(68, 68, 68); stroke-opacity: 1;"/><path class="point" transform="translate(108.86,329.51)" d="M5,0A5,5 0 1,1 0,-5A5,5 0 0,1 5,0Z" style="opacity: 1; stroke-width: 2px; fill: rgb(245, 121, 58); fill-opacity: 1; stroke: rgb(68, 68, 68); stroke-opacity: 1;"/><path class="point" transform="translate(59.7,196.21)" d="M5,0A5,5 0 1,1 0,-5A5,5 0 0,1 5,0Z" style="opacity: 1; stroke-width: 2px; fill: rgb(245, 121, 58); fill-opacity: 1; stroke: rgb(68, 68, 68); stroke-opacity: 1;"/><path class="point" transform="translate(286.89,168.13)" d="M5,0A5,5 0 1,1 0,-5A5,5 0 0,1 5,0Z" style="opacity: 1; stroke-width: 2px; fill: rgb(245, 121, 58); fill-opacity: 1; stroke: rgb(68, 68, 68); stroke-opacity: 1;"/></g><g class="text"/></g></g></g><g class="overplot"/><path class="xlines-above crisp" d="M78,471H470" style="fill: none; stroke-width: 2px; stroke: rgb(0, 0, 0); stroke-opacity: 1;"/><path class="ylines-above crisp" d="M79,100V470" style="fill: none; stroke-width: 2px; stroke: rgb(0, 0, 0); stroke-opacity: 1;"/><g class="overlines-above"/><g class="xaxislayer-above"><path class="xtick ticks crisp" d="M0,472v5" transform="translate(80,0)" style="stroke: rgb(68, 68, 68); stroke-opacity: 1; stroke-width: 1px;"/><path class="xtick ticks crisp" d="M0,472v5" transform="translate(177.5,0)" style="stroke: rgb(68, 68, 68); stroke-opacity: 1; stroke-width: 1px;"/><path class="xtick ticks crisp" d="M0,472v5" transform="translate(275,0)" style="stroke: rgb(68, 68, 68); stroke-opacity: 1; stroke-width: 1px;"/><path class="xtick ticks crisp" d="M0,472v5" transform="translate(372.5,0)" style="stroke: rgb(68, 68, 68); stroke-opacity: 1; stroke-width: 1px;"/><path class="xtick ticks crisp" d="M0,472v5" transform="translate(470,0)" style="stroke: rgb(68, 68, 68); stroke-opacity: 1; stroke-width: 1px;"/><g class="xtick"><text text-anchor="middle" x="0" y="491.4" transform="translate(80,0)" style="font-family: 'Open Sans', verdana, arial, sans-serif; font-size: 12px; fill: rgb(42, 63, 95); fill-opacity: 1; white-space: pre;">−6</text></g><g class="xtick"><text text-anchor="middle" x="0" y="491.4" transform="translate(177.5,0)" style="font-family: 'Open Sans', verdana, arial, sans-serif; font-size: 12px; fill: rgb(42, 63, 95); fill-opacity: 1; white-space: pre;">−4</text></g><g class="xtick"><text text-anchor="middle" x="0" y="491.4" transform="translate(275,0)" style="font-family: 'Open Sans', verdana, arial, sans-serif; font-size: 12px; fill: rgb(42, 63, 95); fill-opacity: 1; white-space: pre;">−2</text></g><g class="xtick"><text text-anchor="middle" x="0" y="491.4" transform="translate(372.5,0)" style="font-family: 'Open Sans', verdana, arial, sans-serif; font-size: 12px; fill: rgb(42, 63, 95); fill-opacity: 1; white-space: pre;">0</text></g><g class="xtick"><text text-anchor="middle" x="0" y="491.4" transform="translate(470,0)" style="font-family: 'Open Sans', verdana, arial, sans-serif; font-size: 12px; fill: rgb(42, 63, 95); fill-opacity: 1; white-space: pre;">2</text></g></g><g class="yaxislayer-above"><path class="ytick ticks crisp" d="M80,0h5" transform="translate(0,377.5)" style="stroke: rgb(68, 68, 68); stroke-opacity: 1; stroke-width: 1px;"/><path class="ytick ticks crisp" d="M80,0h5" transform="translate(0,285)" style="stroke: rgb(68, 68, 68); stroke-opacity: 1; stroke-width: 1px;"/><path class="ytick ticks crisp" d="M80,0h5" transform="translate(0,192.5)" style="stroke: rgb(68, 68, 68); stroke-opacity: 1; stroke-width: 1px;"/><g class="ytick"><text text-anchor="end" x="75.6" y="4.199999999999999" transform="translate(0,470)" style="font-family: 'Open Sans', verdana, arial, sans-serif; font-size: 12px; fill: rgb(42, 63, 95); fill-opacity: 1; white-space: pre;">−6</text></g><g class="ytick"><text text-anchor="end" x="75.6" y="4.199999999999999" transform="translate(0,377.5)" style="font-family: 'Open Sans', verdana, arial, sans-serif; font-size: 12px; fill: rgb(42, 63, 95); fill-opacity: 1; white-space: pre;">−4</text></g><g class="ytick"><text text-anchor="end" x="75.6" y="4.199999999999999" transform="translate(0,285)" style="font-family: 'Open Sans', verdana, arial, sans-serif; font-size: 12px; fill: rgb(42, 63, 95); fill-opacity: 1; white-space: pre;">−2</text></g><g class="ytick"><text text-anchor="end" x="75.6" y="4.199999999999999" transform="translate(0,192.5)" style="font-family: 'Open Sans', verdana, arial, sans-serif; font-size: 12px; fill: rgb(42, 63, 95); fill-opacity: 1; white-space: pre;">0</text></g><g class="ytick"><text text-anchor="end" x="75.6" y="4.199999999999999" transform="translate(0,100)" style="font-family: 'Open Sans', verdana, arial, sans-serif; font-size: 12px; fill: rgb(42, 63, 95); fill-opacity: 1; white-space: pre;">2</text></g></g><g class="overaxes-above"/></g></g><g class="polarlayer"/><g class="ternarylayer"/><g class="geolayer"/><g class="funnelarealayer"/><g class="pielayer"/><g class="treemaplayer"/><g class="sunburstlayer"/><g class="glimages"/><defs id="topdefs-54a663"><g class="clips"/></defs><g class="layer-above"><g class="imagelayer"/><g class="shapelayer"/></g><g class="infolayer"><g class="g-gtitle"/><g class="g-xtitle"/><g class="g-ytitle"/></g></svg>